<?xml version="1.0" encoding="UTF-8" standalone="no"?>
<!DOCTYPE svg PUBLIC "-//W3C//DTD SVG 1.1//EN"
 "http://www.w3.org/Graphics/SVG/1.1/DTD/svg11.dtd">
<!-- Generated by graphviz version 2.30.1 (20130214.1330)
 -->
<!-- Title: cas_bas_sc_utl_body_unit_trees Pages: 1 -->
<svg width="662pt" height="2852pt"
 viewBox="0.00 0.00 662.00 2852.00" xmlns="http://www.w3.org/2000/svg" xmlns:xlink="http://www.w3.org/1999/xlink">
<g id="graph0" class="graph" transform="scale(1 1) rotate(0) translate(4 2848)">
<title>cas_bas_sc_utl_body_unit_trees</title>
<polygon fill="white" stroke="white" points="-4,5 -4,-2848 659,-2848 659,5 -4,5"/>
<!-- cas_bas_sc_utl_body.FUNCTION|get_recv_stat_cd -->
<g id="node1" class="node"><title>cas_bas_sc_utl_body.FUNCTION|get_recv_stat_cd</title>
<ellipse fill="none" stroke="red" cx="330" cy="-2826" rx="73.387" ry="18"/>
<text text-anchor="middle" x="330" y="-2822.3" font-family="Times New Roman,serif" font-size="14.00">get_recv_stat_cd</text>
</g>
<!-- cas_bas_sc_utl_body -->
<g id="node2" class="node"><title>cas_bas_sc_utl_body</title>
<ellipse fill="none" stroke="black" cx="563" cy="-1422" rx="90.9839" ry="18"/>
<text text-anchor="middle" x="563" y="-1418.3" font-family="Times New Roman,serif" font-size="14.00">cas_bas_sc_utl_body</text>
</g>
<!-- cas_bas_sc_utl_body.FUNCTION|get_recv_stat_cd&#45;&gt;cas_bas_sc_utl_body -->
<g id="edge1" class="edge"><title>cas_bas_sc_utl_body.FUNCTION|get_recv_stat_cd&#45;&gt;cas_bas_sc_utl_body</title>
<path fill="none" stroke="black" d="M400.522,-2820.72C414.049,-2816.52 426.85,-2809.75 436,-2799 526.679,-2692.47 556.69,-1638.22 561.333,-1450.51"/>
<polygon fill="black" stroke="black" points="564.836,-1450.42 561.58,-1440.34 557.838,-1450.25 564.836,-1450.42"/>
</g>
<!-- cas_bas_sc_utl_body.FUNCTION|get_incmplt_desc -->
<g id="node3" class="node"><title>cas_bas_sc_utl_body.FUNCTION|get_incmplt_desc</title>
<ellipse fill="none" stroke="red" cx="330" cy="-2772" rx="75.2868" ry="18"/>
<text text-anchor="middle" x="330" y="-2768.3" font-family="Times New Roman,serif" font-size="14.00">get_incmplt_desc</text>
</g>
<!-- cas_bas_sc_utl_body.FUNCTION|get_incmplt_desc&#45;&gt;cas_bas_sc_utl_body -->
<g id="edge2" class="edge"><title>cas_bas_sc_utl_body.FUNCTION|get_incmplt_desc&#45;&gt;cas_bas_sc_utl_body</title>
<path fill="none" stroke="black" d="M401.842,-2766.26C414.871,-2762.04 427.136,-2755.38 436,-2745 523.207,-2642.93 555.992,-1632.9 561.229,-1450.24"/>
<polygon fill="black" stroke="black" points="564.731,-1450.19 561.515,-1440.1 557.734,-1449.99 564.731,-1450.19"/>
</g>
<!-- cas_bas_sc_utl_body.FUNCTION|get_user_nm -->
<g id="node4" class="node"><title>cas_bas_sc_utl_body.FUNCTION|get_user_nm</title>
<ellipse fill="none" stroke="red" cx="330" cy="-2718" rx="57.6901" ry="18"/>
<text text-anchor="middle" x="330" y="-2714.3" font-family="Times New Roman,serif" font-size="14.00">get_user_nm</text>
</g>
<!-- cas_bas_sc_utl_body.FUNCTION|get_user_nm&#45;&gt;cas_bas_sc_utl_body -->
<g id="edge3" class="edge"><title>cas_bas_sc_utl_body.FUNCTION|get_user_nm&#45;&gt;cas_bas_sc_utl_body</title>
<path fill="none" stroke="black" d="M387.621,-2715.89C405.602,-2712.31 423.929,-2705.07 436,-2691 519.658,-2593.48 555.202,-1629.35 561.101,-1450.48"/>
<polygon fill="black" stroke="black" points="564.605,-1450.4 561.432,-1440.29 557.609,-1450.17 564.605,-1450.4"/>
</g>
<!-- cas_bas_sc_utl_body.PROCEDURE|update_bas_tip -->
<g id="node5" class="node"><title>cas_bas_sc_utl_body.PROCEDURE|update_bas_tip</title>
<ellipse fill="none" stroke="green" cx="330" cy="-2664" rx="66.8882" ry="18"/>
<text text-anchor="middle" x="330" y="-2660.3" font-family="Times New Roman,serif" font-size="14.00">update_bas_tip</text>
</g>
<!-- cas_bas_sc_utl_body.PROCEDURE|update_bas_tip&#45;&gt;cas_bas_sc_utl_body -->
<g id="edge4" class="edge"><title>cas_bas_sc_utl_body.PROCEDURE|update_bas_tip&#45;&gt;cas_bas_sc_utl_body</title>
<path fill="none" stroke="black" d="M395.527,-2660.03C410.827,-2656 425.679,-2648.98 436,-2637 516.128,-2544.01 554.383,-1625.36 560.963,-1450.62"/>
<polygon fill="black" stroke="black" points="564.468,-1450.54 561.343,-1440.42 557.473,-1450.28 564.468,-1450.54"/>
</g>
<!-- cas_bas_sc_utl_body.FUNCTION|is_gp_pol -->
<g id="node6" class="node"><title>cas_bas_sc_utl_body.FUNCTION|is_gp_pol</title>
<ellipse fill="none" stroke="red" cx="330" cy="-2610" rx="47.3916" ry="18"/>
<text text-anchor="middle" x="330" y="-2606.3" font-family="Times New Roman,serif" font-size="14.00">is_gp_pol</text>
</g>
<!-- cas_bas_sc_utl_body.FUNCTION|is_gp_pol&#45;&gt;cas_bas_sc_utl_body -->
<g id="edge5" class="edge"><title>cas_bas_sc_utl_body.FUNCTION|is_gp_pol&#45;&gt;cas_bas_sc_utl_body</title>
<path fill="none" stroke="black" d="M377.502,-2609.49C398.414,-2606.72 421.585,-2599.65 436,-2583 512.698,-2494.42 553.623,-1619.08 560.839,-1450.14"/>
<polygon fill="black" stroke="black" points="564.34,-1450.19 561.265,-1440.05 557.346,-1449.89 564.34,-1450.19"/>
</g>
<!-- cas_bas_sc_utl_body.FUNCTION|get_pol_stat_desc -->
<g id="node7" class="node"><title>cas_bas_sc_utl_body.FUNCTION|get_pol_stat_desc</title>
<ellipse fill="none" stroke="red" cx="330" cy="-2556" rx="77.1866" ry="18"/>
<text text-anchor="middle" x="330" y="-2552.3" font-family="Times New Roman,serif" font-size="14.00">get_pol_stat_desc</text>
</g>
<!-- cas_bas_sc_utl_body.FUNCTION|get_pol_stat_desc&#45;&gt;cas_bas_sc_utl_body -->
<g id="edge6" class="edge"><title>cas_bas_sc_utl_body.FUNCTION|get_pol_stat_desc&#45;&gt;cas_bas_sc_utl_body</title>
<path fill="none" stroke="black" d="M402.773,-2549.78C415.411,-2545.55 427.288,-2539.01 436,-2529 509.165,-2444.94 552.71,-1615.13 560.672,-1450.36"/>
<polygon fill="black" stroke="black" points="564.182,-1450.23 561.165,-1440.07 557.19,-1449.89 564.182,-1450.23"/>
</g>
<!-- cas_bas_sc_utl_body.FUNCTION|get_is_expire -->
<g id="node8" class="node"><title>cas_bas_sc_utl_body.FUNCTION|get_is_expire</title>
<ellipse fill="none" stroke="red" cx="330" cy="-2502" rx="59.2899" ry="18"/>
<text text-anchor="middle" x="330" y="-2498.3" font-family="Times New Roman,serif" font-size="14.00">get_is_expire</text>
</g>
<!-- cas_bas_sc_utl_body.FUNCTION|get_is_expire&#45;&gt;cas_bas_sc_utl_body -->
<g id="edge7" class="edge"><title>cas_bas_sc_utl_body.FUNCTION|get_is_expire&#45;&gt;cas_bas_sc_utl_body</title>
<path fill="none" stroke="black" d="M388.829,-2499.48C406.356,-2495.79 424.098,-2488.6 436,-2475 505.655,-2395.44 551.765,-1610.65 560.493,-1450.46"/>
<polygon fill="black" stroke="black" points="564.012,-1450.2 561.057,-1440.03 557.022,-1449.82 564.012,-1450.2"/>
</g>
<!-- cas_bas_sc_utl_body.PROCEDURE|get_doc_typ_tab -->
<g id="node9" class="node"><title>cas_bas_sc_utl_body.PROCEDURE|get_doc_typ_tab</title>
<ellipse fill="none" stroke="green" cx="330" cy="-2448" rx="73.387" ry="18"/>
<text text-anchor="middle" x="330" y="-2444.3" font-family="Times New Roman,serif" font-size="14.00">get_doc_typ_tab</text>
</g>
<!-- cas_bas_sc_utl_body.PROCEDURE|get_doc_typ_tab&#45;&gt;cas_bas_sc_utl_body -->
<g id="edge8" class="edge"><title>cas_bas_sc_utl_body.PROCEDURE|get_doc_typ_tab&#45;&gt;cas_bas_sc_utl_body</title>
<path fill="none" stroke="black" d="M400.248,-2442.48C413.791,-2438.29 426.667,-2431.59 436,-2421 502.164,-2345.91 550.781,-1605.75 560.299,-1450.48"/>
<polygon fill="black" stroke="black" points="563.803,-1450.52 560.917,-1440.33 556.816,-1450.1 563.803,-1450.52"/>
</g>
<!-- cas_bas_sc_utl_body.FUNCTION|get_pol_stat_desc.FUNCTION|get_agt_stat_cd -->
<g id="node10" class="node"><title>cas_bas_sc_utl_body.FUNCTION|get_pol_stat_desc.FUNCTION|get_agt_stat_cd</title>
<ellipse fill="none" stroke="red" cx="94" cy="-2583" rx="68.7879" ry="18"/>
<text text-anchor="middle" x="94" y="-2579.3" font-family="Times New Roman,serif" font-size="14.00">get_agt_stat_cd</text>
</g>
<!-- cas_bas_sc_utl_body.FUNCTION|get_pol_stat_desc.FUNCTION|get_agt_stat_cd&#45;&gt;cas_bas_sc_utl_body.FUNCTION|get_pol_stat_desc -->
<g id="edge9" class="edge"><title>cas_bas_sc_utl_body.FUNCTION|get_pol_stat_desc.FUNCTION|get_agt_stat_cd&#45;&gt;cas_bas_sc_utl_body.FUNCTION|get_pol_stat_desc</title>
<path fill="none" stroke="black" d="M157.4,-2575.8C185.864,-2572.52 219.885,-2568.59 250.1,-2565.1"/>
<polygon fill="black" stroke="black" points="250.654,-2568.56 260.187,-2563.94 249.852,-2561.61 250.654,-2568.56"/>
</g>
<!-- cas_bas_sc_utl_body.PROCEDURE|bas_lock.PROCEDURE|add_lock -->
<g id="node11" class="node"><title>cas_bas_sc_utl_body.PROCEDURE|bas_lock.PROCEDURE|add_lock</title>
<ellipse fill="none" stroke="green" cx="94" cy="-2421" rx="44.6926" ry="18"/>
<text text-anchor="middle" x="94" y="-2417.3" font-family="Times New Roman,serif" font-size="14.00">add_lock</text>
</g>
<!-- cas_bas_sc_utl_body.PROCEDURE|bas_lock -->
<g id="node12" class="node"><title>cas_bas_sc_utl_body.PROCEDURE|bas_lock</title>
<ellipse fill="none" stroke="green" cx="330" cy="-2394" rx="44.393" ry="18"/>
<text text-anchor="middle" x="330" y="-2390.3" font-family="Times New Roman,serif" font-size="14.00">bas_lock</text>
</g>
<!-- cas_bas_sc_utl_body.PROCEDURE|bas_lock.PROCEDURE|add_lock&#45;&gt;cas_bas_sc_utl_body.PROCEDURE|bas_lock -->
<g id="edge10" class="edge"><title>cas_bas_sc_utl_body.PROCEDURE|bas_lock.PROCEDURE|add_lock&#45;&gt;cas_bas_sc_utl_body.PROCEDURE|bas_lock</title>
<path fill="none" stroke="black" d="M137.376,-2416.11C176.676,-2411.58 235.255,-2404.82 277.292,-2399.97"/>
<polygon fill="black" stroke="black" points="277.8,-2403.43 287.333,-2398.81 276.998,-2396.48 277.8,-2403.43"/>
</g>
<!-- cas_bas_sc_utl_body.PROCEDURE|bas_lock&#45;&gt;cas_bas_sc_utl_body -->
<g id="edge53" class="edge"><title>cas_bas_sc_utl_body.PROCEDURE|bas_lock&#45;&gt;cas_bas_sc_utl_body</title>
<path fill="none" stroke="black" d="M374.396,-2393.7C395.995,-2391.17 420.696,-2384.25 436,-2367 560.739,-2226.44 563.323,-1591.67 562.315,-1450.07"/>
<polygon fill="black" stroke="black" points="565.814,-1449.99 562.231,-1440.02 558.815,-1450.05 565.814,-1449.99"/>
</g>
<!-- cas_bas_sc_utl_body.FUNCTION|is_agt -->
<g id="node13" class="node"><title>cas_bas_sc_utl_body.FUNCTION|is_agt</title>
<ellipse fill="none" stroke="red" cx="330" cy="-2340" rx="32.4942" ry="18"/>
<text text-anchor="middle" x="330" y="-2336.3" font-family="Times New Roman,serif" font-size="14.00">is_agt</text>
</g>
<!-- cas_bas_sc_utl_body.FUNCTION|is_agt&#45;&gt;cas_bas_sc_utl_body -->
<g id="edge11" class="edge"><title>cas_bas_sc_utl_body.FUNCTION|is_agt&#45;&gt;cas_bas_sc_utl_body</title>
<path fill="none" stroke="black" d="M362.84,-2340.65C386.535,-2339.3 417.804,-2333.34 436,-2313 553.765,-2181.35 561.794,-1587.09 562.064,-1450.19"/>
<polygon fill="black" stroke="black" points="565.564,-1450.09 562.071,-1440.09 558.564,-1450.09 565.564,-1450.09"/>
</g>
<!-- cas_bas_sc_utl_body.FUNCTION|get_doc_desc -->
<g id="node14" class="node"><title>cas_bas_sc_utl_body.FUNCTION|get_doc_desc</title>
<ellipse fill="none" stroke="red" cx="330" cy="-2286" rx="62.2891" ry="18"/>
<text text-anchor="middle" x="330" y="-2282.3" font-family="Times New Roman,serif" font-size="14.00">get_doc_desc</text>
</g>
<!-- cas_bas_sc_utl_body.FUNCTION|get_doc_desc&#45;&gt;cas_bas_sc_utl_body -->
<g id="edge12" class="edge"><title>cas_bas_sc_utl_body.FUNCTION|get_doc_desc&#45;&gt;cas_bas_sc_utl_body</title>
<path fill="none" stroke="black" d="M391.327,-2282.66C407.938,-2278.8 424.523,-2271.71 436,-2259 546.853,-2136.19 560.179,-1581.88 561.781,-1450.15"/>
<polygon fill="black" stroke="black" points="565.282,-1450.1 561.89,-1440.06 558.282,-1450.02 565.282,-1450.1"/>
</g>
<!-- cas_bas_sc_utl_body.FUNCTION|is_locked -->
<g id="node15" class="node"><title>cas_bas_sc_utl_body.FUNCTION|is_locked</title>
<ellipse fill="none" stroke="red" cx="330" cy="-2232" rx="46.2923" ry="18"/>
<text text-anchor="middle" x="330" y="-2228.3" font-family="Times New Roman,serif" font-size="14.00">is_locked</text>
</g>
<!-- cas_bas_sc_utl_body.FUNCTION|is_locked&#45;&gt;cas_bas_sc_utl_body -->
<g id="edge13" class="edge"><title>cas_bas_sc_utl_body.FUNCTION|is_locked&#45;&gt;cas_bas_sc_utl_body</title>
<path fill="none" stroke="black" d="M376.327,-2231.26C397.358,-2228.49 420.972,-2221.48 436,-2205 539.892,-2091.07 558.44,-1577.16 561.455,-1450.35"/>
<polygon fill="black" stroke="black" points="564.956,-1450.34 561.681,-1440.27 557.958,-1450.19 564.956,-1450.34"/>
</g>
<!-- cas_bas_sc_utl_body.FUNCTION|get_lock_stat -->
<g id="node16" class="node"><title>cas_bas_sc_utl_body.FUNCTION|get_lock_stat</title>
<ellipse fill="none" stroke="red" cx="330" cy="-2178" rx="59.5901" ry="18"/>
<text text-anchor="middle" x="330" y="-2174.3" font-family="Times New Roman,serif" font-size="14.00">get_lock_stat</text>
</g>
<!-- cas_bas_sc_utl_body.FUNCTION|get_lock_stat&#45;&gt;cas_bas_sc_utl_body -->
<g id="edge14" class="edge"><title>cas_bas_sc_utl_body.FUNCTION|get_lock_stat&#45;&gt;cas_bas_sc_utl_body</title>
<path fill="none" stroke="black" d="M388.966,-2174.99C406.29,-2171.25 423.875,-2164.14 436,-2151 533.016,-2045.84 556.601,-1571.57 561.087,-1450.31"/>
<polygon fill="black" stroke="black" points="564.596,-1450.12 561.453,-1440 557.6,-1449.87 564.596,-1450.12"/>
</g>
<!-- cas_bas_sc_utl_body.FUNCTION|get_prim_file_index -->
<g id="node17" class="node"><title>cas_bas_sc_utl_body.FUNCTION|get_prim_file_index</title>
<ellipse fill="none" stroke="red" cx="330" cy="-2124" rx="83.3857" ry="18"/>
<text text-anchor="middle" x="330" y="-2120.3" font-family="Times New Roman,serif" font-size="14.00">get_prim_file_index</text>
</g>
<!-- cas_bas_sc_utl_body.FUNCTION|get_prim_file_index&#45;&gt;cas_bas_sc_utl_body -->
<g id="edge15" class="edge"><title>cas_bas_sc_utl_body.FUNCTION|get_prim_file_index&#45;&gt;cas_bas_sc_utl_body</title>
<path fill="none" stroke="black" d="M405.176,-2116.26C416.762,-2112.08 427.644,-2105.94 436,-2097 526.114,-2000.62 554.595,-1566.23 560.653,-1450.44"/>
<polygon fill="black" stroke="black" points="564.159,-1450.41 561.171,-1440.25 557.168,-1450.06 564.159,-1450.41"/>
</g>
<!-- cas_bas_sc_utl_body.FUNCTION|get_is_scaned -->
<g id="node18" class="node"><title>cas_bas_sc_utl_body.FUNCTION|get_is_scaned</title>
<ellipse fill="none" stroke="red" cx="330" cy="-2070" rx="62.2891" ry="18"/>
<text text-anchor="middle" x="330" y="-2066.3" font-family="Times New Roman,serif" font-size="14.00">get_is_scaned</text>
</g>
<!-- cas_bas_sc_utl_body.FUNCTION|get_is_scaned&#45;&gt;cas_bas_sc_utl_body -->
<g id="edge16" class="edge"><title>cas_bas_sc_utl_body.FUNCTION|get_is_scaned&#45;&gt;cas_bas_sc_utl_body</title>
<path fill="none" stroke="black" d="M391.203,-2066.22C407.71,-2062.34 424.269,-2055.35 436,-2043 519.315,-1955.28 552.476,-1559.89 560.164,-1450.26"/>
<polygon fill="black" stroke="black" points="563.675,-1450.22 560.867,-1440 556.692,-1449.74 563.675,-1450.22"/>
</g>
<!-- cas_bas_sc_utl_body.FUNCTION|get_recv_stat_desc -->
<g id="node19" class="node"><title>cas_bas_sc_utl_body.FUNCTION|get_recv_stat_desc</title>
<ellipse fill="none" stroke="red" cx="330" cy="-2016" rx="81.4863" ry="18"/>
<text text-anchor="middle" x="330" y="-2012.3" font-family="Times New Roman,serif" font-size="14.00">get_recv_stat_desc</text>
</g>
<!-- cas_bas_sc_utl_body.FUNCTION|get_recv_stat_desc&#45;&gt;cas_bas_sc_utl_body -->
<g id="edge17" class="edge"><title>cas_bas_sc_utl_body.FUNCTION|get_recv_stat_desc&#45;&gt;cas_bas_sc_utl_body</title>
<path fill="none" stroke="black" d="M403.85,-2008.4C415.86,-2004.23 427.231,-1998.06 436,-1989 512.524,-1909.91 550.154,-1553.48 559.583,-1450.16"/>
<polygon fill="black" stroke="black" points="563.072,-1450.43 560.479,-1440.16 556.1,-1449.81 563.072,-1450.43"/>
</g>
<!-- cas_bas_sc_utl_body.FUNCTION|is_exist_uncheck_tips -->
<g id="node20" class="node"><title>cas_bas_sc_utl_body.FUNCTION|is_exist_uncheck_tips</title>
<ellipse fill="none" stroke="red" cx="330" cy="-1962" rx="90.9839" ry="18"/>
<text text-anchor="middle" x="330" y="-1958.3" font-family="Times New Roman,serif" font-size="14.00">is_exist_uncheck_tips</text>
</g>
<!-- cas_bas_sc_utl_body.FUNCTION|is_exist_uncheck_tips&#45;&gt;cas_bas_sc_utl_body -->
<g id="edge18" class="edge"><title>cas_bas_sc_utl_body.FUNCTION|is_exist_uncheck_tips&#45;&gt;cas_bas_sc_utl_body</title>
<path fill="none" stroke="black" d="M407.965,-1952.67C418.403,-1948.58 428.19,-1942.89 436,-1935 505.71,-1864.53 547.534,-1547.29 558.861,-1450.27"/>
<polygon fill="black" stroke="black" points="562.37,-1450.4 560.035,-1440.07 555.415,-1449.6 562.37,-1450.4"/>
</g>
<!-- cas_bas_sc_utl_body.FUNCTION|get_lack_docs -->
<g id="node21" class="node"><title>cas_bas_sc_utl_body.FUNCTION|get_lack_docs</title>
<ellipse fill="none" stroke="red" cx="330" cy="-1908" rx="63.8893" ry="18"/>
<text text-anchor="middle" x="330" y="-1904.3" font-family="Times New Roman,serif" font-size="14.00">get_lack_docs</text>
</g>
<!-- cas_bas_sc_utl_body.FUNCTION|get_lack_docs&#45;&gt;cas_bas_sc_utl_body -->
<g id="edge19" class="edge"><title>cas_bas_sc_utl_body.FUNCTION|get_lack_docs&#45;&gt;cas_bas_sc_utl_body</title>
<path fill="none" stroke="black" d="M391.781,-1903.45C407.913,-1899.51 424.126,-1892.68 436,-1881 498.971,-1819.04 544.647,-1540.41 557.992,-1450.24"/>
<polygon fill="black" stroke="black" points="561.475,-1450.61 559.458,-1440.21 554.549,-1449.6 561.475,-1450.61"/>
</g>
<!-- cas_bas_sc_utl_body.FUNCTION|get_prim_file_typ -->
<g id="node22" class="node"><title>cas_bas_sc_utl_body.FUNCTION|get_prim_file_typ</title>
<ellipse fill="none" stroke="red" cx="330" cy="-1854" rx="75.2868" ry="18"/>
<text text-anchor="middle" x="330" y="-1850.3" font-family="Times New Roman,serif" font-size="14.00">get_prim_file_typ</text>
</g>
<!-- cas_bas_sc_utl_body.FUNCTION|get_prim_file_typ&#45;&gt;cas_bas_sc_utl_body -->
<g id="edge20" class="edge"><title>cas_bas_sc_utl_body.FUNCTION|get_prim_file_typ&#45;&gt;cas_bas_sc_utl_body</title>
<path fill="none" stroke="black" d="M399.722,-1846.94C413.053,-1842.82 425.977,-1836.54 436,-1827 545.868,-1722.48 560.51,-1524.05 562.034,-1450.43"/>
<polygon fill="black" stroke="black" points="565.538,-1450.15 562.176,-1440.1 558.539,-1450.05 565.538,-1450.15"/>
</g>
<!-- cas_bas_sc_utl_body.FUNCTION|get_dms_doc_desc -->
<g id="node23" class="node"><title>cas_bas_sc_utl_body.FUNCTION|get_dms_doc_desc</title>
<ellipse fill="none" stroke="red" cx="330" cy="-1800" rx="83.3857" ry="18"/>
<text text-anchor="middle" x="330" y="-1796.3" font-family="Times New Roman,serif" font-size="14.00">get_dms_doc_desc</text>
</g>
<!-- cas_bas_sc_utl_body.FUNCTION|get_dms_doc_desc&#45;&gt;cas_bas_sc_utl_body -->
<g id="edge21" class="edge"><title>cas_bas_sc_utl_body.FUNCTION|get_dms_doc_desc&#45;&gt;cas_bas_sc_utl_body</title>
<path fill="none" stroke="black" d="M403.216,-1791.38C415.217,-1787.3 426.748,-1781.43 436,-1773 532.791,-1684.81 555.289,-1516.9 560.469,-1450.27"/>
<polygon fill="black" stroke="black" points="563.973,-1450.33 561.183,-1440.11 556.991,-1449.84 563.973,-1450.33"/>
</g>
<!-- cas_bas_sc_utl_body.FUNCTION|get_track_stat_cd -->
<g id="node24" class="node"><title>cas_bas_sc_utl_body.FUNCTION|get_track_stat_cd</title>
<ellipse fill="none" stroke="red" cx="330" cy="-1746" rx="76.0865" ry="18"/>
<text text-anchor="middle" x="330" y="-1742.3" font-family="Times New Roman,serif" font-size="14.00">get_track_stat_cd</text>
</g>
<!-- cas_bas_sc_utl_body.FUNCTION|get_track_stat_cd&#45;&gt;cas_bas_sc_utl_body -->
<g id="edge22" class="edge"><title>cas_bas_sc_utl_body.FUNCTION|get_track_stat_cd&#45;&gt;cas_bas_sc_utl_body</title>
<path fill="none" stroke="black" d="M398.744,-1738.24C412.216,-1734.17 425.443,-1728.09 436,-1719 519.729,-1646.94 549.231,-1509.63 558.365,-1450.38"/>
<polygon fill="black" stroke="black" points="561.861,-1450.66 559.842,-1440.26 554.935,-1449.65 561.861,-1450.66"/>
</g>
<!-- cas_bas_sc_utl_body.FUNCTION|isvalid_prim_file_index -->
<g id="node25" class="node"><title>cas_bas_sc_utl_body.FUNCTION|isvalid_prim_file_index</title>
<ellipse fill="none" stroke="red" cx="330" cy="-1692" rx="94.7833" ry="18"/>
<text text-anchor="middle" x="330" y="-1688.3" font-family="Times New Roman,serif" font-size="14.00">isvalid_prim_file_index</text>
</g>
<!-- cas_bas_sc_utl_body.FUNCTION|isvalid_prim_file_index&#45;&gt;cas_bas_sc_utl_body -->
<g id="edge23" class="edge"><title>cas_bas_sc_utl_body.FUNCTION|isvalid_prim_file_index&#45;&gt;cas_bas_sc_utl_body</title>
<path fill="none" stroke="black" d="M405.859,-1681.12C416.7,-1677.25 427.163,-1672.03 436,-1665 506.998,-1608.51 542.178,-1501.13 555.476,-1450.18"/>
<polygon fill="black" stroke="black" points="558.941,-1450.75 557.987,-1440.2 552.152,-1449.04 558.941,-1450.75"/>
</g>
<!-- cas_bas_sc_utl_body.FUNCTION|get_dept_desc -->
<g id="node26" class="node"><title>cas_bas_sc_utl_body.FUNCTION|get_dept_desc</title>
<ellipse fill="none" stroke="red" cx="330" cy="-1638" rx="64.189" ry="18"/>
<text text-anchor="middle" x="330" y="-1634.3" font-family="Times New Roman,serif" font-size="14.00">get_dept_desc</text>
</g>
<!-- cas_bas_sc_utl_body.FUNCTION|get_dept_desc&#45;&gt;cas_bas_sc_utl_body -->
<g id="edge24" class="edge"><title>cas_bas_sc_utl_body.FUNCTION|get_dept_desc&#45;&gt;cas_bas_sc_utl_body</title>
<path fill="none" stroke="black" d="M389.312,-1630.9C405.486,-1626.91 422.339,-1620.7 436,-1611 494.676,-1569.35 533.717,-1491.07 551.306,-1449.52"/>
<polygon fill="black" stroke="black" points="554.641,-1450.61 555.218,-1440.04 548.17,-1447.95 554.641,-1450.61"/>
</g>
<!-- cas_bas_sc_utl_body.PROCEDURE|bas_unlock.PROCEDURE|delete_lock -->
<g id="node27" class="node"><title>cas_bas_sc_utl_body.PROCEDURE|bas_unlock.PROCEDURE|delete_lock</title>
<ellipse fill="none" stroke="green" cx="94" cy="-1584" rx="51.9908" ry="18"/>
<text text-anchor="middle" x="94" y="-1580.3" font-family="Times New Roman,serif" font-size="14.00">delete_lock</text>
</g>
<!-- cas_bas_sc_utl_body.PROCEDURE|bas_unlock -->
<g id="node28" class="node"><title>cas_bas_sc_utl_body.PROCEDURE|bas_unlock</title>
<ellipse fill="none" stroke="green" cx="330" cy="-1584" rx="52.7911" ry="18"/>
<text text-anchor="middle" x="330" y="-1580.3" font-family="Times New Roman,serif" font-size="14.00">bas_unlock</text>
</g>
<!-- cas_bas_sc_utl_body.PROCEDURE|bas_unlock.PROCEDURE|delete_lock&#45;&gt;cas_bas_sc_utl_body.PROCEDURE|bas_unlock -->
<g id="edge25" class="edge"><title>cas_bas_sc_utl_body.PROCEDURE|bas_unlock.PROCEDURE|delete_lock&#45;&gt;cas_bas_sc_utl_body.PROCEDURE|bas_unlock</title>
<path fill="none" stroke="black" d="M146.063,-1584C181.587,-1584 229.152,-1584 266.876,-1584"/>
<polygon fill="black" stroke="black" points="267.237,-1587.5 277.237,-1584 267.237,-1580.5 267.237,-1587.5"/>
</g>
<!-- cas_bas_sc_utl_body.PROCEDURE|bas_unlock&#45;&gt;cas_bas_sc_utl_body -->
<g id="edge52" class="edge"><title>cas_bas_sc_utl_body.PROCEDURE|bas_unlock&#45;&gt;cas_bas_sc_utl_body</title>
<path fill="none" stroke="black" d="M379.232,-1577.54C397.894,-1573.57 418.844,-1567.19 436,-1557 482.668,-1529.29 522.714,-1479.19 544.488,-1448.44"/>
<polygon fill="black" stroke="black" points="547.564,-1450.14 550.391,-1439.93 541.813,-1446.15 547.564,-1450.14"/>
</g>
<!-- cas_bas_sc_utl_body.FUNCTION|get_recv_ext_ref -->
<g id="node29" class="node"><title>cas_bas_sc_utl_body.FUNCTION|get_recv_ext_ref</title>
<ellipse fill="none" stroke="red" cx="330" cy="-1530" rx="72.2875" ry="18"/>
<text text-anchor="middle" x="330" y="-1526.3" font-family="Times New Roman,serif" font-size="14.00">get_recv_ext_ref</text>
</g>
<!-- cas_bas_sc_utl_body.FUNCTION|get_recv_ext_ref&#45;&gt;cas_bas_sc_utl_body -->
<g id="edge26" class="edge"><title>cas_bas_sc_utl_body.FUNCTION|get_recv_ext_ref&#45;&gt;cas_bas_sc_utl_body</title>
<path fill="none" stroke="black" d="M387.423,-1519.01C403.473,-1514.95 420.733,-1509.66 436,-1503 470.752,-1487.83 506.792,-1463.67 531.379,-1445.67"/>
<polygon fill="black" stroke="black" points="533.632,-1448.36 539.577,-1439.59 529.461,-1442.74 533.632,-1448.36"/>
</g>
<!-- cas_bas_sc_utl_body.FUNCTION|get_biz_cat_desc -->
<g id="node30" class="node"><title>cas_bas_sc_utl_body.FUNCTION|get_biz_cat_desc</title>
<ellipse fill="none" stroke="red" cx="330" cy="-1476" rx="74.9875" ry="18"/>
<text text-anchor="middle" x="330" y="-1472.3" font-family="Times New Roman,serif" font-size="14.00">get_biz_cat_desc</text>
</g>
<!-- cas_bas_sc_utl_body.FUNCTION|get_biz_cat_desc&#45;&gt;cas_bas_sc_utl_body -->
<g id="edge27" class="edge"><title>cas_bas_sc_utl_body.FUNCTION|get_biz_cat_desc&#45;&gt;cas_bas_sc_utl_body</title>
<path fill="none" stroke="black" d="M384.286,-1463.54C416.665,-1455.97 458.343,-1446.23 493.198,-1438.08"/>
<polygon fill="black" stroke="black" points="494.364,-1441.41 503.305,-1435.72 492.77,-1434.59 494.364,-1441.41"/>
</g>
<!-- cas_bas_sc_utl_body.FUNCTION|get_mgr_agt_code -->
<g id="node31" class="node"><title>cas_bas_sc_utl_body.FUNCTION|get_mgr_agt_code</title>
<ellipse fill="none" stroke="red" cx="330" cy="-1422" rx="79.0865" ry="18"/>
<text text-anchor="middle" x="330" y="-1418.3" font-family="Times New Roman,serif" font-size="14.00">get_mgr_agt_code</text>
</g>
<!-- cas_bas_sc_utl_body.FUNCTION|get_mgr_agt_code&#45;&gt;cas_bas_sc_utl_body -->
<g id="edge28" class="edge"><title>cas_bas_sc_utl_body.FUNCTION|get_mgr_agt_code&#45;&gt;cas_bas_sc_utl_body</title>
<path fill="none" stroke="black" d="M409.528,-1422C426.257,-1422 444.142,-1422 461.562,-1422"/>
<polygon fill="black" stroke="black" points="461.753,-1425.5 471.753,-1422 461.753,-1418.5 461.753,-1425.5"/>
</g>
<!-- cas_bas_sc_utl_body.FUNCTION|is_glh_pol -->
<g id="node32" class="node"><title>cas_bas_sc_utl_body.FUNCTION|is_glh_pol</title>
<ellipse fill="none" stroke="red" cx="330" cy="-1368" rx="48.9926" ry="18"/>
<text text-anchor="middle" x="330" y="-1364.3" font-family="Times New Roman,serif" font-size="14.00">is_glh_pol</text>
</g>
<!-- cas_bas_sc_utl_body.FUNCTION|is_glh_pol&#45;&gt;cas_bas_sc_utl_body -->
<g id="edge29" class="edge"><title>cas_bas_sc_utl_body.FUNCTION|is_glh_pol&#45;&gt;cas_bas_sc_utl_body</title>
<path fill="none" stroke="black" d="M371.501,-1377.47C405.14,-1385.33 453.731,-1396.69 493.418,-1405.97"/>
<polygon fill="black" stroke="black" points="492.768,-1409.41 503.302,-1408.28 494.361,-1402.59 492.768,-1409.41"/>
</g>
<!-- cas_bas_sc_utl_body.FUNCTION|get_submitted_by_desc -->
<g id="node33" class="node"><title>cas_bas_sc_utl_body.FUNCTION|get_submitted_by_desc</title>
<ellipse fill="none" stroke="red" cx="330" cy="-1314" rx="98.2828" ry="18"/>
<text text-anchor="middle" x="330" y="-1310.3" font-family="Times New Roman,serif" font-size="14.00">get_submitted_by_desc</text>
</g>
<!-- cas_bas_sc_utl_body.FUNCTION|get_submitted_by_desc&#45;&gt;cas_bas_sc_utl_body -->
<g id="edge30" class="edge"><title>cas_bas_sc_utl_body.FUNCTION|get_submitted_by_desc&#45;&gt;cas_bas_sc_utl_body</title>
<path fill="none" stroke="black" d="M396.228,-1327.32C409.649,-1331.01 423.493,-1335.54 436,-1341 470.752,-1356.17 506.792,-1380.33 531.379,-1398.33"/>
<polygon fill="black" stroke="black" points="529.461,-1401.26 539.577,-1404.41 533.632,-1395.64 529.461,-1401.26"/>
</g>
<!-- cas_bas_sc_utl_body.FUNCTION|get_acpt_time -->
<g id="node34" class="node"><title>cas_bas_sc_utl_body.FUNCTION|get_acpt_time</title>
<ellipse fill="none" stroke="red" cx="330" cy="-1260" rx="61.99" ry="18"/>
<text text-anchor="middle" x="330" y="-1256.3" font-family="Times New Roman,serif" font-size="14.00">get_acpt_time</text>
</g>
<!-- cas_bas_sc_utl_body.FUNCTION|get_acpt_time&#45;&gt;cas_bas_sc_utl_body -->
<g id="edge31" class="edge"><title>cas_bas_sc_utl_body.FUNCTION|get_acpt_time&#45;&gt;cas_bas_sc_utl_body</title>
<path fill="none" stroke="black" d="M385.649,-1267.9C402.589,-1271.93 420.786,-1277.97 436,-1287 482.668,-1314.71 522.714,-1364.81 544.488,-1395.56"/>
<polygon fill="black" stroke="black" points="541.813,-1397.85 550.391,-1404.07 547.564,-1393.86 541.813,-1397.85"/>
</g>
<!-- cas_bas_sc_utl_body.FUNCTION|get_user_id -->
<g id="node35" class="node"><title>cas_bas_sc_utl_body.FUNCTION|get_user_id</title>
<ellipse fill="none" stroke="red" cx="330" cy="-1206" rx="53.0913" ry="18"/>
<text text-anchor="middle" x="330" y="-1202.3" font-family="Times New Roman,serif" font-size="14.00">get_user_id</text>
</g>
<!-- cas_bas_sc_utl_body.FUNCTION|get_user_id&#45;&gt;cas_bas_sc_utl_body -->
<g id="edge32" class="edge"><title>cas_bas_sc_utl_body.FUNCTION|get_user_id&#45;&gt;cas_bas_sc_utl_body</title>
<path fill="none" stroke="black" d="M381.21,-1211.27C399.715,-1215.09 420.037,-1221.67 436,-1233 494.676,-1274.65 533.717,-1352.93 551.306,-1394.48"/>
<polygon fill="black" stroke="black" points="548.17,-1396.05 555.218,-1403.96 554.641,-1393.39 548.17,-1396.05"/>
</g>
<!-- cas_bas_sc_utl_body.PROCEDURE|active_lock -->
<g id="node36" class="node"><title>cas_bas_sc_utl_body.PROCEDURE|active_lock</title>
<ellipse fill="none" stroke="green" cx="330" cy="-1152" rx="51.9908" ry="18"/>
<text text-anchor="middle" x="330" y="-1148.3" font-family="Times New Roman,serif" font-size="14.00">active_lock</text>
</g>
<!-- cas_bas_sc_utl_body.PROCEDURE|active_lock&#45;&gt;cas_bas_sc_utl_body -->
<g id="edge33" class="edge"><title>cas_bas_sc_utl_body.PROCEDURE|active_lock&#45;&gt;cas_bas_sc_utl_body</title>
<path fill="none" stroke="black" d="M380.821,-1156.15C399.702,-1159.81 420.387,-1166.58 436,-1179 506.998,-1235.49 542.178,-1342.87 555.476,-1393.82"/>
<polygon fill="black" stroke="black" points="552.152,-1394.96 557.987,-1403.8 558.941,-1393.25 552.152,-1394.96"/>
</g>
<!-- cas_bas_sc_utl_body.FUNCTION|is_new_business -->
<g id="node37" class="node"><title>cas_bas_sc_utl_body.FUNCTION|is_new_business</title>
<ellipse fill="none" stroke="red" cx="330" cy="-1098" rx="72.2875" ry="18"/>
<text text-anchor="middle" x="330" y="-1094.3" font-family="Times New Roman,serif" font-size="14.00">is_new_business</text>
</g>
<!-- cas_bas_sc_utl_body.FUNCTION|is_new_business&#45;&gt;cas_bas_sc_utl_body -->
<g id="edge34" class="edge"><title>cas_bas_sc_utl_body.FUNCTION|is_new_business&#45;&gt;cas_bas_sc_utl_body</title>
<path fill="none" stroke="black" d="M396.558,-1105.12C410.778,-1109.18 424.872,-1115.42 436,-1125 519.729,-1197.06 549.231,-1334.37 558.365,-1393.62"/>
<polygon fill="black" stroke="black" points="554.935,-1394.35 559.842,-1403.74 561.861,-1393.34 554.935,-1394.35"/>
</g>
<!-- cas_bas_sc_utl_body.PROCEDURE|update_hdrs_eval -->
<g id="node38" class="node"><title>cas_bas_sc_utl_body.PROCEDURE|update_hdrs_eval</title>
<ellipse fill="none" stroke="green" cx="330" cy="-1044" rx="75.2868" ry="18"/>
<text text-anchor="middle" x="330" y="-1040.3" font-family="Times New Roman,serif" font-size="14.00">update_hdrs_eval</text>
</g>
<!-- cas_bas_sc_utl_body.PROCEDURE|update_hdrs_eval&#45;&gt;cas_bas_sc_utl_body -->
<g id="edge35" class="edge"><title>cas_bas_sc_utl_body.PROCEDURE|update_hdrs_eval&#45;&gt;cas_bas_sc_utl_body</title>
<path fill="none" stroke="black" d="M399.14,-1051.31C412.587,-1055.41 425.704,-1061.62 436,-1071 532.791,-1159.19 555.289,-1327.1 560.469,-1393.73"/>
<polygon fill="black" stroke="black" points="556.991,-1394.16 561.183,-1403.89 563.973,-1393.67 556.991,-1394.16"/>
</g>
<!-- cas_bas_sc_utl_body.FUNCTION|get_pol_stat_desc.FUNCTION|get_cas_app_pol_num -->
<g id="node39" class="node"><title>cas_bas_sc_utl_body.FUNCTION|get_pol_stat_desc.FUNCTION|get_cas_app_pol_num</title>
<ellipse fill="none" stroke="red" cx="94" cy="-2529" rx="94.4839" ry="18"/>
<text text-anchor="middle" x="94" y="-2525.3" font-family="Times New Roman,serif" font-size="14.00">get_cas_app_pol_num</text>
</g>
<!-- cas_bas_sc_utl_body.FUNCTION|get_pol_stat_desc.FUNCTION|get_cas_app_pol_num&#45;&gt;cas_bas_sc_utl_body.FUNCTION|get_pol_stat_desc -->
<g id="edge36" class="edge"><title>cas_bas_sc_utl_body.FUNCTION|get_pol_stat_desc.FUNCTION|get_cas_app_pol_num&#45;&gt;cas_bas_sc_utl_body.FUNCTION|get_pol_stat_desc</title>
<path fill="none" stroke="black" d="M175.202,-2538.25C199.397,-2541.05 225.929,-2544.11 250.042,-2546.89"/>
<polygon fill="black" stroke="black" points="249.879,-2550.39 260.214,-2548.06 250.681,-2543.44 249.879,-2550.39"/>
</g>
<!-- cas_bas_sc_utl_body.FUNCTION|get_bas_tips -->
<g id="node40" class="node"><title>cas_bas_sc_utl_body.FUNCTION|get_bas_tips</title>
<ellipse fill="none" stroke="red" cx="330" cy="-990" rx="57.3905" ry="18"/>
<text text-anchor="middle" x="330" y="-986.3" font-family="Times New Roman,serif" font-size="14.00">get_bas_tips</text>
</g>
<!-- cas_bas_sc_utl_body.FUNCTION|get_bas_tips&#45;&gt;cas_bas_sc_utl_body -->
<g id="edge37" class="edge"><title>cas_bas_sc_utl_body.FUNCTION|get_bas_tips&#45;&gt;cas_bas_sc_utl_body</title>
<path fill="none" stroke="black" d="M386.075,-993.574C403.927,-997.279 422.567,-1004.22 436,-1017 545.868,-1121.52 560.51,-1319.95 562.034,-1393.57"/>
<polygon fill="black" stroke="black" points="558.539,-1393.95 562.176,-1403.9 565.538,-1393.85 558.539,-1393.95"/>
</g>
<!-- cas_bas_sc_utl_body.FUNCTION|get_location -->
<g id="node41" class="node"><title>cas_bas_sc_utl_body.FUNCTION|get_location</title>
<ellipse fill="none" stroke="red" cx="330" cy="-936" rx="55.4913" ry="18"/>
<text text-anchor="middle" x="330" y="-932.3" font-family="Times New Roman,serif" font-size="14.00">get_location</text>
</g>
<!-- cas_bas_sc_utl_body.FUNCTION|get_location&#45;&gt;cas_bas_sc_utl_body -->
<g id="edge38" class="edge"><title>cas_bas_sc_utl_body.FUNCTION|get_location&#45;&gt;cas_bas_sc_utl_body</title>
<path fill="none" stroke="black" d="M384.69,-938.992C403.057,-942.583 422.382,-949.601 436,-963 498.971,-1024.96 544.647,-1303.59 557.992,-1393.76"/>
<polygon fill="black" stroke="black" points="554.549,-1394.4 559.458,-1403.79 561.475,-1393.39 554.549,-1394.4"/>
</g>
<!-- cas_bas_sc_utl_body.FUNCTION|get_probs -->
<g id="node42" class="node"><title>cas_bas_sc_utl_body.FUNCTION|get_probs</title>
<ellipse fill="none" stroke="red" cx="330" cy="-882" rx="48.1917" ry="18"/>
<text text-anchor="middle" x="330" y="-878.3" font-family="Times New Roman,serif" font-size="14.00">get_probs</text>
</g>
<!-- cas_bas_sc_utl_body.FUNCTION|get_probs&#45;&gt;cas_bas_sc_utl_body -->
<g id="edge39" class="edge"><title>cas_bas_sc_utl_body.FUNCTION|get_probs&#45;&gt;cas_bas_sc_utl_body</title>
<path fill="none" stroke="black" d="M378.15,-883.625C398.438,-886.723 420.91,-893.745 436,-909 505.71,-979.47 547.534,-1296.71 558.861,-1393.73"/>
<polygon fill="black" stroke="black" points="555.415,-1394.4 560.035,-1403.93 562.37,-1393.6 555.415,-1394.4"/>
</g>
<!-- cas_bas_sc_utl_body.FUNCTION|get_cas_app_pol_num -->
<g id="node43" class="node"><title>cas_bas_sc_utl_body.FUNCTION|get_cas_app_pol_num</title>
<ellipse fill="none" stroke="red" cx="330" cy="-828" rx="94.4839" ry="18"/>
<text text-anchor="middle" x="330" y="-824.3" font-family="Times New Roman,serif" font-size="14.00">get_cas_app_pol_num</text>
</g>
<!-- cas_bas_sc_utl_body.FUNCTION|get_cas_app_pol_num&#45;&gt;cas_bas_sc_utl_body -->
<g id="edge40" class="edge"><title>cas_bas_sc_utl_body.FUNCTION|get_cas_app_pol_num&#45;&gt;cas_bas_sc_utl_body</title>
<path fill="none" stroke="black" d="M409.442,-837.71C419.36,-841.773 428.605,-847.357 436,-855 512.524,-934.093 550.154,-1290.52 559.583,-1393.84"/>
<polygon fill="black" stroke="black" points="556.1,-1394.19 560.479,-1403.84 563.072,-1393.57 556.1,-1394.19"/>
</g>
<!-- cas_bas_sc_utl_body.FUNCTION|get_avail_biz_cat_tab -->
<g id="node44" class="node"><title>cas_bas_sc_utl_body.FUNCTION|get_avail_biz_cat_tab</title>
<ellipse fill="none" stroke="red" cx="330" cy="-774" rx="89.8845" ry="18"/>
<text text-anchor="middle" x="330" y="-770.3" font-family="Times New Roman,serif" font-size="14.00">get_avail_biz_cat_tab</text>
</g>
<!-- cas_bas_sc_utl_body.FUNCTION|get_avail_biz_cat_tab&#45;&gt;cas_bas_sc_utl_body -->
<g id="edge41" class="edge"><title>cas_bas_sc_utl_body.FUNCTION|get_avail_biz_cat_tab&#45;&gt;cas_bas_sc_utl_body</title>
<path fill="none" stroke="black" d="M407.988,-782.949C418.488,-787.075 428.288,-792.88 436,-801 519.315,-888.721 552.476,-1284.11 560.164,-1393.74"/>
<polygon fill="black" stroke="black" points="556.692,-1394.26 560.867,-1404 563.675,-1393.78 556.692,-1394.26"/>
</g>
<!-- cas_bas_sc_utl_body.FUNCTION|get_prob_list -->
<g id="node45" class="node"><title>cas_bas_sc_utl_body.FUNCTION|get_prob_list</title>
<ellipse fill="none" stroke="red" cx="330" cy="-720" rx="59.2899" ry="18"/>
<text text-anchor="middle" x="330" y="-716.3" font-family="Times New Roman,serif" font-size="14.00">get_prob_list</text>
</g>
<!-- cas_bas_sc_utl_body.FUNCTION|get_prob_list&#45;&gt;cas_bas_sc_utl_body -->
<g id="edge42" class="edge"><title>cas_bas_sc_utl_body.FUNCTION|get_prob_list&#45;&gt;cas_bas_sc_utl_body</title>
<path fill="none" stroke="black" d="M388.589,-723.048C405.994,-726.779 423.723,-733.87 436,-747 526.114,-843.377 554.595,-1277.77 560.653,-1393.56"/>
<polygon fill="black" stroke="black" points="557.168,-1393.94 561.171,-1403.75 564.159,-1393.59 557.168,-1393.94"/>
</g>
<!-- cas_bas_sc_utl_body.FUNCTION|get_tot_serv_prd -->
<g id="node46" class="node"><title>cas_bas_sc_utl_body.FUNCTION|get_tot_serv_prd</title>
<ellipse fill="none" stroke="red" cx="330" cy="-666" rx="73.387" ry="18"/>
<text text-anchor="middle" x="330" y="-662.3" font-family="Times New Roman,serif" font-size="14.00">get_tot_serv_prd</text>
</g>
<!-- cas_bas_sc_utl_body.FUNCTION|get_tot_serv_prd&#45;&gt;cas_bas_sc_utl_body -->
<g id="edge43" class="edge"><title>cas_bas_sc_utl_body.FUNCTION|get_tot_serv_prd&#45;&gt;cas_bas_sc_utl_body</title>
<path fill="none" stroke="black" d="M399.618,-671.762C413.279,-675.923 426.364,-682.555 436,-693 533.016,-798.162 556.601,-1272.43 561.087,-1393.69"/>
<polygon fill="black" stroke="black" points="557.6,-1394.13 561.453,-1404 564.596,-1393.88 557.6,-1394.13"/>
</g>
<!-- cas_bas_sc_utl_body.FUNCTION|get_lock_user -->
<g id="node47" class="node"><title>cas_bas_sc_utl_body.FUNCTION|get_lock_user</title>
<ellipse fill="none" stroke="red" cx="330" cy="-612" rx="61.99" ry="18"/>
<text text-anchor="middle" x="330" y="-608.3" font-family="Times New Roman,serif" font-size="14.00">get_lock_user</text>
</g>
<!-- cas_bas_sc_utl_body.FUNCTION|get_lock_user&#45;&gt;cas_bas_sc_utl_body -->
<g id="edge44" class="edge"><title>cas_bas_sc_utl_body.FUNCTION|get_lock_user&#45;&gt;cas_bas_sc_utl_body</title>
<path fill="none" stroke="black" d="M390.973,-615.354C407.673,-619.196 424.396,-626.274 436,-639 539.892,-752.934 558.44,-1266.84 561.455,-1393.65"/>
<polygon fill="black" stroke="black" points="557.958,-1393.81 561.681,-1403.73 564.956,-1393.66 557.958,-1393.81"/>
</g>
<!-- cas_bas_sc_utl_body.FUNCTION|get_agt_cat_typ -->
<g id="node48" class="node"><title>cas_bas_sc_utl_body.FUNCTION|get_agt_cat_typ</title>
<ellipse fill="none" stroke="red" cx="330" cy="-558" rx="69.5877" ry="18"/>
<text text-anchor="middle" x="330" y="-554.3" font-family="Times New Roman,serif" font-size="14.00">get_agt_cat_typ</text>
</g>
<!-- cas_bas_sc_utl_body.FUNCTION|get_agt_cat_typ&#45;&gt;cas_bas_sc_utl_body -->
<g id="edge45" class="edge"><title>cas_bas_sc_utl_body.FUNCTION|get_agt_cat_typ&#45;&gt;cas_bas_sc_utl_body</title>
<path fill="none" stroke="black" d="M397.068,-562.811C411.698,-566.909 425.848,-573.752 436,-585 546.853,-707.813 560.179,-1262.12 561.781,-1393.85"/>
<polygon fill="black" stroke="black" points="558.282,-1393.98 561.89,-1403.94 565.282,-1393.9 558.282,-1393.98"/>
</g>
<!-- cas_bas_sc_utl_body.FUNCTION|is_exist_bas_tips -->
<g id="node49" class="node"><title>cas_bas_sc_utl_body.FUNCTION|is_exist_bas_tips</title>
<ellipse fill="none" stroke="red" cx="330" cy="-504" rx="73.387" ry="18"/>
<text text-anchor="middle" x="330" y="-500.3" font-family="Times New Roman,serif" font-size="14.00">is_exist_bas_tips</text>
</g>
<!-- cas_bas_sc_utl_body.FUNCTION|is_exist_bas_tips&#45;&gt;cas_bas_sc_utl_body -->
<g id="edge46" class="edge"><title>cas_bas_sc_utl_body.FUNCTION|is_exist_bas_tips&#45;&gt;cas_bas_sc_utl_body</title>
<path fill="none" stroke="black" d="M400.129,-509.627C413.679,-513.805 426.588,-520.479 436,-531 553.765,-662.648 561.794,-1256.91 562.064,-1393.81"/>
<polygon fill="black" stroke="black" points="558.564,-1393.91 562.071,-1403.91 565.564,-1393.91 558.564,-1393.91"/>
</g>
<!-- cas_bas_sc_utl_body.FUNCTION|get_serv_prd -->
<g id="node50" class="node"><title>cas_bas_sc_utl_body.FUNCTION|get_serv_prd</title>
<ellipse fill="none" stroke="red" cx="330" cy="-450" rx="59.2899" ry="18"/>
<text text-anchor="middle" x="330" y="-446.3" font-family="Times New Roman,serif" font-size="14.00">get_serv_prd</text>
</g>
<!-- cas_bas_sc_utl_body.FUNCTION|get_serv_prd&#45;&gt;cas_bas_sc_utl_body -->
<g id="edge47" class="edge"><title>cas_bas_sc_utl_body.FUNCTION|get_serv_prd&#45;&gt;cas_bas_sc_utl_body</title>
<path fill="none" stroke="black" d="M388.722,-452.619C406.242,-456.309 424.006,-463.485 436,-477 560.739,-617.561 563.323,-1252.33 562.315,-1393.93"/>
<polygon fill="black" stroke="black" points="558.815,-1393.95 562.231,-1403.98 565.814,-1394.01 558.815,-1393.95"/>
</g>
<!-- cas_bas_sc_utl_body.FUNCTION|is_next_track_stat_cd -->
<g id="node51" class="node"><title>cas_bas_sc_utl_body.FUNCTION|is_next_track_stat_cd</title>
<ellipse fill="none" stroke="red" cx="330" cy="-396" rx="90.9839" ry="18"/>
<text text-anchor="middle" x="330" y="-392.3" font-family="Times New Roman,serif" font-size="14.00">is_next_track_stat_cd</text>
</g>
<!-- cas_bas_sc_utl_body.FUNCTION|is_next_track_stat_cd&#45;&gt;cas_bas_sc_utl_body -->
<g id="edge48" class="edge"><title>cas_bas_sc_utl_body.FUNCTION|is_next_track_stat_cd&#45;&gt;cas_bas_sc_utl_body</title>
<path fill="none" stroke="black" d="M409.583,-404.879C419.607,-409.045 428.845,-414.88 436,-423 502.164,-498.091 550.781,-1238.25 560.299,-1393.52"/>
<polygon fill="black" stroke="black" points="556.816,-1393.9 560.917,-1403.67 563.803,-1393.48 556.816,-1393.9"/>
</g>
<!-- cas_bas_sc_utl_body.FUNCTION|get_md5 -->
<g id="node52" class="node"><title>cas_bas_sc_utl_body.FUNCTION|get_md5</title>
<ellipse fill="none" stroke="red" cx="330" cy="-342" rx="42.4939" ry="18"/>
<text text-anchor="middle" x="330" y="-338.3" font-family="Times New Roman,serif" font-size="14.00">get_md5</text>
</g>
<!-- cas_bas_sc_utl_body.FUNCTION|get_md5&#45;&gt;cas_bas_sc_utl_body -->
<g id="edge49" class="edge"><title>cas_bas_sc_utl_body.FUNCTION|get_md5&#45;&gt;cas_bas_sc_utl_body</title>
<path fill="none" stroke="black" d="M372.383,-341.985C394.494,-344.283 420.316,-351.085 436,-369 505.655,-448.563 551.765,-1233.35 560.493,-1393.54"/>
<polygon fill="black" stroke="black" points="557.022,-1394.18 561.057,-1403.97 564.012,-1393.8 557.022,-1394.18"/>
</g>
<!-- cas_bas_sc_utl_body.FUNCTION|get_track_typ -->
<g id="node53" class="node"><title>cas_bas_sc_utl_body.FUNCTION|get_track_typ</title>
<ellipse fill="none" stroke="red" cx="330" cy="-288" rx="61.1893" ry="18"/>
<text text-anchor="middle" x="330" y="-284.3" font-family="Times New Roman,serif" font-size="14.00">get_track_typ</text>
</g>
<!-- cas_bas_sc_utl_body.FUNCTION|get_track_typ&#45;&gt;cas_bas_sc_utl_body -->
<g id="edge50" class="edge"><title>cas_bas_sc_utl_body.FUNCTION|get_track_typ&#45;&gt;cas_bas_sc_utl_body</title>
<path fill="none" stroke="black" d="M390.519,-290.84C407.508,-294.623 424.508,-301.796 436,-315 509.165,-399.059 552.71,-1228.87 560.672,-1393.64"/>
<polygon fill="black" stroke="black" points="557.19,-1394.11 561.165,-1403.93 564.182,-1393.77 557.19,-1394.11"/>
</g>
<!-- cas_bas_sc_utl_body.FUNCTION|get_chnl_desc -->
<g id="node54" class="node"><title>cas_bas_sc_utl_body.FUNCTION|get_chnl_desc</title>
<ellipse fill="none" stroke="red" cx="330" cy="-234" rx="63.8893" ry="18"/>
<text text-anchor="middle" x="330" y="-230.3" font-family="Times New Roman,serif" font-size="14.00">get_chnl_desc</text>
</g>
<!-- cas_bas_sc_utl_body.FUNCTION|get_chnl_desc&#45;&gt;cas_bas_sc_utl_body -->
<g id="edge51" class="edge"><title>cas_bas_sc_utl_body.FUNCTION|get_chnl_desc&#45;&gt;cas_bas_sc_utl_body</title>
<path fill="none" stroke="black" d="M392.753,-237.311C409.003,-241.214 425.035,-248.336 436,-261 512.698,-349.585 553.623,-1224.92 560.839,-1393.86"/>
<polygon fill="black" stroke="black" points="557.346,-1394.11 561.265,-1403.95 564.34,-1393.81 557.346,-1394.11"/>
</g>
<!-- cas_bas_sc_utl_body.PROCEDURE|get_receive_info -->
<g id="node55" class="node"><title>cas_bas_sc_utl_body.PROCEDURE|get_receive_info</title>
<ellipse fill="none" stroke="green" cx="330" cy="-180" rx="70.6878" ry="18"/>
<text text-anchor="middle" x="330" y="-176.3" font-family="Times New Roman,serif" font-size="14.00">get_receive_info</text>
</g>
<!-- cas_bas_sc_utl_body.PROCEDURE|get_receive_info&#45;&gt;cas_bas_sc_utl_body -->
<g id="edge54" class="edge"><title>cas_bas_sc_utl_body.PROCEDURE|get_receive_info&#45;&gt;cas_bas_sc_utl_body</title>
<path fill="none" stroke="black" d="M398.526,-184.797C412.752,-188.939 426.355,-195.807 436,-207 516.128,-299.994 554.383,-1218.64 560.963,-1393.38"/>
<polygon fill="black" stroke="black" points="557.473,-1393.72 561.343,-1403.58 564.468,-1393.46 557.473,-1393.72"/>
</g>
<!-- cas_bas_sc_utl_body.PROCEDURE|bas_lock.PROCEDURE|update_lock -->
<g id="node56" class="node"><title>cas_bas_sc_utl_body.PROCEDURE|bas_lock.PROCEDURE|update_lock</title>
<ellipse fill="none" stroke="green" cx="94" cy="-2367" rx="55.7903" ry="18"/>
<text text-anchor="middle" x="94" y="-2363.3" font-family="Times New Roman,serif" font-size="14.00">update_lock</text>
</g>
<!-- cas_bas_sc_utl_body.PROCEDURE|bas_lock.PROCEDURE|update_lock&#45;&gt;cas_bas_sc_utl_body.PROCEDURE|bas_lock -->
<g id="edge55" class="edge"><title>cas_bas_sc_utl_body.PROCEDURE|bas_lock.PROCEDURE|update_lock&#45;&gt;cas_bas_sc_utl_body.PROCEDURE|bas_lock</title>
<path fill="none" stroke="black" d="M146.932,-2372.99C185.743,-2377.47 238.559,-2383.56 277.311,-2388.04"/>
<polygon fill="black" stroke="black" points="277.007,-2391.52 287.343,-2389.19 277.81,-2384.57 277.007,-2391.52"/>
</g>
<!-- cas_bas_sc_utl_body.FUNCTION|get_prob_desc -->
<g id="node57" class="node"><title>cas_bas_sc_utl_body.FUNCTION|get_prob_desc</title>
<ellipse fill="none" stroke="red" cx="330" cy="-126" rx="65.7887" ry="18"/>
<text text-anchor="middle" x="330" y="-122.3" font-family="Times New Roman,serif" font-size="14.00">get_prob_desc</text>
</g>
<!-- cas_bas_sc_utl_body.FUNCTION|get_prob_desc&#45;&gt;cas_bas_sc_utl_body -->
<g id="edge56" class="edge"><title>cas_bas_sc_utl_body.FUNCTION|get_prob_desc&#45;&gt;cas_bas_sc_utl_body</title>
<path fill="none" stroke="black" d="M394.469,-129.653C410.153,-133.636 425.461,-140.714 436,-153 519.658,-250.52 555.202,-1214.65 561.101,-1393.52"/>
<polygon fill="black" stroke="black" points="557.609,-1393.83 561.432,-1403.71 564.605,-1393.6 557.609,-1393.83"/>
</g>
<!-- cas_bas_sc_utl_body.FUNCTION|get_cas_pos_quota_prem -->
<g id="node58" class="node"><title>cas_bas_sc_utl_body.FUNCTION|get_cas_pos_quota_prem</title>
<ellipse fill="none" stroke="red" cx="330" cy="-72" rx="105.881" ry="18"/>
<text text-anchor="middle" x="330" y="-68.3" font-family="Times New Roman,serif" font-size="14.00">get_cas_pos_quota_prem</text>
</g>
<!-- cas_bas_sc_utl_body.FUNCTION|get_cas_pos_quota_prem&#45;&gt;cas_bas_sc_utl_body -->
<g id="edge57" class="edge"><title>cas_bas_sc_utl_body.FUNCTION|get_cas_pos_quota_prem&#45;&gt;cas_bas_sc_utl_body</title>
<path fill="none" stroke="black" d="M414.687,-82.9045C422.772,-86.8886 430.131,-92.131 436,-99 523.207,-201.071 555.992,-1211.1 561.229,-1393.76"/>
<polygon fill="black" stroke="black" points="557.734,-1394.01 561.515,-1403.9 564.731,-1393.81 557.734,-1394.01"/>
</g>
<!-- cas_bas_sc_utl_body.FUNCTION|is_pol -->
<g id="node59" class="node"><title>cas_bas_sc_utl_body.FUNCTION|is_pol</title>
<ellipse fill="none" stroke="red" cx="330" cy="-18" rx="33.2948" ry="18"/>
<text text-anchor="middle" x="330" y="-14.3" font-family="Times New Roman,serif" font-size="14.00">is_pol</text>
</g>
<!-- cas_bas_sc_utl_body.FUNCTION|is_pol&#45;&gt;cas_bas_sc_utl_body -->
<g id="edge58" class="edge"><title>cas_bas_sc_utl_body.FUNCTION|is_pol&#45;&gt;cas_bas_sc_utl_body</title>
<path fill="none" stroke="black" d="M363.125,-17.1046C386.974,-18.3153 418.31,-24.2171 436,-45 526.679,-151.533 556.69,-1205.78 561.333,-1393.49"/>
<polygon fill="black" stroke="black" points="557.838,-1393.75 561.58,-1403.66 564.836,-1393.58 557.838,-1393.75"/>
</g>
</g>
</svg>
