<?xml version="1.0" encoding="UTF-8" standalone="no"?>
<!DOCTYPE svg PUBLIC "-//W3C//DTD SVG 1.1//EN"
 "http://www.w3.org/Graphics/SVG/1.1/DTD/svg11.dtd">
<!-- Generated by graphviz version 2.30.1 (20130214.1330)
 -->
<!-- Title: cas_bas_sc_utl_body_sub_callgraph Pages: 1 -->
<svg width="544pt" height="890pt"
 viewBox="0.00 0.00 544.00 890.00" xmlns="http://www.w3.org/2000/svg" xmlns:xlink="http://www.w3.org/1999/xlink">
<g id="graph0" class="graph" transform="scale(1 1) rotate(0) translate(4 886)">
<title>cas_bas_sc_utl_body_sub_callgraph</title>
<polygon fill="white" stroke="white" points="-4,5 -4,-886 541,-886 541,5 -4,5"/>
<!-- cas_bas_sc_utl_body.FUNCTION|get_avail_biz_cat_tab -->
<g id="node1" class="node"><title>cas_bas_sc_utl_body.FUNCTION|get_avail_biz_cat_tab</title>
<ellipse fill="none" stroke="red" cx="298" cy="-369" rx="89.8845" ry="18"/>
<text text-anchor="middle" x="298" y="-365.3" font-family="Times New Roman,serif" font-size="14.00">get_avail_biz_cat_tab</text>
</g>
<!-- cas_bas_sc_utl_body.FUNCTION|get_cas_app_pol_num -->
<g id="node2" class="node"><title>cas_bas_sc_utl_body.FUNCTION|get_cas_app_pol_num</title>
<ellipse fill="none" stroke="red" cx="298" cy="-261" rx="94.4839" ry="18"/>
<text text-anchor="middle" x="298" y="-257.3" font-family="Times New Roman,serif" font-size="14.00">get_cas_app_pol_num</text>
</g>
<!-- cas_bas_sc_utl_body.FUNCTION|get_cas_pos_quota_prem -->
<g id="node3" class="node"><title>cas_bas_sc_utl_body.FUNCTION|get_cas_pos_quota_prem</title>
<ellipse fill="none" stroke="red" cx="298" cy="-315" rx="105.881" ry="18"/>
<text text-anchor="middle" x="298" y="-311.3" font-family="Times New Roman,serif" font-size="14.00">get_cas_pos_quota_prem</text>
</g>
<!-- cas_bas_sc_utl_body.FUNCTION|get_lack_docs -->
<g id="node4" class="node"><title>cas_bas_sc_utl_body.FUNCTION|get_lack_docs</title>
<ellipse fill="none" stroke="red" cx="298" cy="-477" rx="63.8893" ry="18"/>
<text text-anchor="middle" x="298" y="-473.3" font-family="Times New Roman,serif" font-size="14.00">get_lack_docs</text>
</g>
<!-- cas_bas_sc_utl_body.FUNCTION|get_lock_stat -->
<g id="node5" class="node"><title>cas_bas_sc_utl_body.FUNCTION|get_lock_stat</title>
<ellipse fill="none" stroke="red" cx="298" cy="-693" rx="59.5901" ry="18"/>
<text text-anchor="middle" x="298" y="-689.3" font-family="Times New Roman,serif" font-size="14.00">get_lock_stat</text>
</g>
<!-- cas_bas_sc_utl_body.FUNCTION|get_pol_stat_desc -->
<g id="node6" class="node"><title>cas_bas_sc_utl_body.FUNCTION|get_pol_stat_desc</title>
<ellipse fill="none" stroke="red" cx="78" cy="-234" rx="77.1866" ry="18"/>
<text text-anchor="middle" x="78" y="-230.3" font-family="Times New Roman,serif" font-size="14.00">get_pol_stat_desc</text>
</g>
<!-- cas_bas_sc_utl_body.FUNCTION|get_pol_stat_desc&#45;&gt;cas_bas_sc_utl_body.FUNCTION|get_cas_app_pol_num -->
<g id="edge1" class="edge"><title>cas_bas_sc_utl_body.FUNCTION|get_pol_stat_desc&#45;&gt;cas_bas_sc_utl_body.FUNCTION|get_cas_app_pol_num</title>
<path fill="none" stroke="black" d="M146.782,-242.395C166.331,-244.816 187.954,-247.494 208.56,-250.046"/>
<polygon fill="black" stroke="black" points="208.227,-253.532 218.581,-251.288 209.087,-246.585 208.227,-253.532"/>
</g>
<!-- cas_bas_sc_utl_body.FUNCTION|get_pol_stat_desc.FUNCTION|get_cas_app_pol_num -->
<g id="node7" class="node"><title>cas_bas_sc_utl_body.FUNCTION|get_pol_stat_desc.FUNCTION|get_cas_app_pol_num</title>
<ellipse fill="none" stroke="red" cx="298" cy="-207" rx="94.4839" ry="18"/>
<text text-anchor="middle" x="298" y="-203.3" font-family="Times New Roman,serif" font-size="14.00">get_cas_app_pol_num</text>
</g>
<!-- cas_bas_sc_utl_body.FUNCTION|get_pol_stat_desc&#45;&gt;cas_bas_sc_utl_body.FUNCTION|get_pol_stat_desc.FUNCTION|get_cas_app_pol_num -->
<g id="edge2" class="edge"><title>cas_bas_sc_utl_body.FUNCTION|get_pol_stat_desc&#45;&gt;cas_bas_sc_utl_body.FUNCTION|get_pol_stat_desc.FUNCTION|get_cas_app_pol_num</title>
<path fill="none" stroke="black" d="M146.782,-225.605C166.331,-223.184 187.954,-220.506 208.56,-217.954"/>
<polygon fill="black" stroke="black" points="209.087,-221.415 218.581,-216.712 208.227,-214.468 209.087,-221.415"/>
</g>
<!-- cas_bas_sc_utl_body.FUNCTION|get_prim_file_typ -->
<g id="node8" class="node"><title>cas_bas_sc_utl_body.FUNCTION|get_prim_file_typ</title>
<ellipse fill="none" stroke="red" cx="298" cy="-126" rx="75.2868" ry="18"/>
<text text-anchor="middle" x="298" y="-122.3" font-family="Times New Roman,serif" font-size="14.00">get_prim_file_typ</text>
</g>
<!-- cas_bas_sc_utl_body.FUNCTION|get_pol_stat_desc&#45;&gt;cas_bas_sc_utl_body.FUNCTION|get_prim_file_typ -->
<g id="edge3" class="edge"><title>cas_bas_sc_utl_body.FUNCTION|get_pol_stat_desc&#45;&gt;cas_bas_sc_utl_body.FUNCTION|get_prim_file_typ</title>
<path fill="none" stroke="black" d="M126.396,-219.95C136.417,-216.276 146.752,-211.937 156,-207 173.643,-197.581 175.047,-190.611 192,-180 211.412,-167.85 233.878,-156.02 253.035,-146.545"/>
<polygon fill="black" stroke="black" points="254.699,-149.628 262.146,-142.092 251.625,-143.339 254.699,-149.628"/>
</g>
<!-- cas_bas_sc_utl_body.FUNCTION|get_prob_list -->
<g id="node9" class="node"><title>cas_bas_sc_utl_body.FUNCTION|get_prob_list</title>
<ellipse fill="none" stroke="red" cx="298" cy="-423" rx="59.2899" ry="18"/>
<text text-anchor="middle" x="298" y="-419.3" font-family="Times New Roman,serif" font-size="14.00">get_prob_list</text>
</g>
<!-- cas_bas_sc_utl_body.FUNCTION|get_probs -->
<g id="node10" class="node"><title>cas_bas_sc_utl_body.FUNCTION|get_probs</title>
<ellipse fill="none" stroke="red" cx="488" cy="-423" rx="48.1917" ry="18"/>
<text text-anchor="middle" x="488" y="-419.3" font-family="Times New Roman,serif" font-size="14.00">get_probs</text>
</g>
<!-- cas_bas_sc_utl_body.FUNCTION|get_prob_list&#45;&gt;cas_bas_sc_utl_body.FUNCTION|get_probs -->
<g id="edge4" class="edge"><title>cas_bas_sc_utl_body.FUNCTION|get_prob_list&#45;&gt;cas_bas_sc_utl_body.FUNCTION|get_probs</title>
<path fill="none" stroke="black" d="M357.197,-423C380.202,-423 406.571,-423 429.507,-423"/>
<polygon fill="black" stroke="black" points="429.779,-426.5 439.779,-423 429.779,-419.5 429.779,-426.5"/>
</g>
<!-- cas_bas_sc_utl_body.FUNCTION|get_serv_prd -->
<g id="node11" class="node"><title>cas_bas_sc_utl_body.FUNCTION|get_serv_prd</title>
<ellipse fill="none" stroke="red" cx="78" cy="-801" rx="59.2899" ry="18"/>
<text text-anchor="middle" x="78" y="-797.3" font-family="Times New Roman,serif" font-size="14.00">get_serv_prd</text>
</g>
<!-- cas_bas_sc_utl_body.FUNCTION|get_track_typ -->
<g id="node12" class="node"><title>cas_bas_sc_utl_body.FUNCTION|get_track_typ</title>
<ellipse fill="none" stroke="red" cx="298" cy="-770" rx="61.1893" ry="18"/>
<text text-anchor="middle" x="298" y="-766.3" font-family="Times New Roman,serif" font-size="14.00">get_track_typ</text>
</g>
<!-- cas_bas_sc_utl_body.FUNCTION|get_serv_prd&#45;&gt;cas_bas_sc_utl_body.FUNCTION|get_track_typ -->
<g id="edge5" class="edge"><title>cas_bas_sc_utl_body.FUNCTION|get_serv_prd&#45;&gt;cas_bas_sc_utl_body.FUNCTION|get_track_typ</title>
<path fill="none" stroke="black" d="M131.772,-793.496C162.017,-789.195 200.217,-783.763 232.266,-779.205"/>
<polygon fill="black" stroke="black" points="233.03,-782.632 242.438,-777.759 232.044,-775.702 233.03,-782.632"/>
</g>
<!-- cas_bas_sc_utl_body.FUNCTION|get_track_typ&#45;&gt;cas_bas_sc_utl_body.FUNCTION|get_track_typ -->
<g id="edge7" class="edge"><title>cas_bas_sc_utl_body.FUNCTION|get_track_typ&#45;&gt;cas_bas_sc_utl_body.FUNCTION|get_track_typ</title>
<path fill="none" stroke="black" d="M265.515,-785.541C256.371,-795.909 267.199,-806 298,-806 318.694,-806 330.373,-801.445 333.035,-795.311"/>
<polygon fill="black" stroke="black" points="336.397,-794.333 330.485,-785.541 329.624,-796.101 336.397,-794.333"/>
</g>
<!-- cas_bas_sc_utl_body.FUNCTION|get_tot_serv_prd -->
<g id="node13" class="node"><title>cas_bas_sc_utl_body.FUNCTION|get_tot_serv_prd</title>
<ellipse fill="none" stroke="red" cx="78" cy="-747" rx="73.387" ry="18"/>
<text text-anchor="middle" x="78" y="-743.3" font-family="Times New Roman,serif" font-size="14.00">get_tot_serv_prd</text>
</g>
<!-- cas_bas_sc_utl_body.FUNCTION|get_tot_serv_prd&#45;&gt;cas_bas_sc_utl_body.FUNCTION|get_track_typ -->
<g id="edge6" class="edge"><title>cas_bas_sc_utl_body.FUNCTION|get_tot_serv_prd&#45;&gt;cas_bas_sc_utl_body.FUNCTION|get_track_typ</title>
<path fill="none" stroke="black" d="M145.889,-754.057C172.635,-756.879 203.38,-760.123 230.125,-762.944"/>
<polygon fill="black" stroke="black" points="229.851,-766.435 240.163,-764.003 230.585,-759.473 229.851,-766.435"/>
</g>
<!-- cas_bas_sc_utl_body.FUNCTION|is_agt -->
<g id="node14" class="node"><title>cas_bas_sc_utl_body.FUNCTION|is_agt</title>
<ellipse fill="none" stroke="red" cx="78" cy="-180" rx="32.4942" ry="18"/>
<text text-anchor="middle" x="78" y="-176.3" font-family="Times New Roman,serif" font-size="14.00">is_agt</text>
</g>
<!-- cas_bas_sc_utl_body.FUNCTION|is_agt&#45;&gt;cas_bas_sc_utl_body.FUNCTION|get_prim_file_typ -->
<g id="edge8" class="edge"><title>cas_bas_sc_utl_body.FUNCTION|is_agt&#45;&gt;cas_bas_sc_utl_body.FUNCTION|get_prim_file_typ</title>
<path fill="none" stroke="black" d="M107.949,-172.829C140.223,-164.835 193.367,-151.671 235.103,-141.332"/>
<polygon fill="black" stroke="black" points="236.039,-144.706 244.904,-138.905 234.356,-137.912 236.039,-144.706"/>
</g>
<!-- cas_bas_sc_utl_body.FUNCTION|is_glh_pol -->
<g id="node15" class="node"><title>cas_bas_sc_utl_body.FUNCTION|is_glh_pol</title>
<ellipse fill="none" stroke="red" cx="78" cy="-126" rx="48.9926" ry="18"/>
<text text-anchor="middle" x="78" y="-122.3" font-family="Times New Roman,serif" font-size="14.00">is_glh_pol</text>
</g>
<!-- cas_bas_sc_utl_body.FUNCTION|is_glh_pol&#45;&gt;cas_bas_sc_utl_body.FUNCTION|get_prim_file_typ -->
<g id="edge9" class="edge"><title>cas_bas_sc_utl_body.FUNCTION|is_glh_pol&#45;&gt;cas_bas_sc_utl_body.FUNCTION|get_prim_file_typ</title>
<path fill="none" stroke="black" d="M126.841,-126C151.843,-126 183.192,-126 212.148,-126"/>
<polygon fill="black" stroke="black" points="212.276,-129.5 222.276,-126 212.276,-122.5 212.276,-129.5"/>
</g>
<!-- cas_bas_sc_utl_body.FUNCTION|is_gp_pol -->
<g id="node16" class="node"><title>cas_bas_sc_utl_body.FUNCTION|is_gp_pol</title>
<ellipse fill="none" stroke="red" cx="78" cy="-72" rx="47.3916" ry="18"/>
<text text-anchor="middle" x="78" y="-68.3" font-family="Times New Roman,serif" font-size="14.00">is_gp_pol</text>
</g>
<!-- cas_bas_sc_utl_body.FUNCTION|is_gp_pol&#45;&gt;cas_bas_sc_utl_body.FUNCTION|get_prim_file_typ -->
<g id="edge10" class="edge"><title>cas_bas_sc_utl_body.FUNCTION|is_gp_pol&#45;&gt;cas_bas_sc_utl_body.FUNCTION|get_prim_file_typ</title>
<path fill="none" stroke="black" d="M118.226,-81.7165C150.747,-89.7721 197.563,-101.369 235.13,-110.674"/>
<polygon fill="black" stroke="black" points="234.414,-114.103 244.963,-113.11 236.098,-107.308 234.414,-114.103"/>
</g>
<!-- cas_bas_sc_utl_body.FUNCTION|is_locked -->
<g id="node17" class="node"><title>cas_bas_sc_utl_body.FUNCTION|is_locked</title>
<ellipse fill="none" stroke="red" cx="78" cy="-693" rx="46.2923" ry="18"/>
<text text-anchor="middle" x="78" y="-689.3" font-family="Times New Roman,serif" font-size="14.00">is_locked</text>
</g>
<!-- cas_bas_sc_utl_body.FUNCTION|is_locked&#45;&gt;cas_bas_sc_utl_body.FUNCTION|get_lock_stat -->
<g id="edge11" class="edge"><title>cas_bas_sc_utl_body.FUNCTION|is_locked&#45;&gt;cas_bas_sc_utl_body.FUNCTION|get_lock_stat</title>
<path fill="none" stroke="black" d="M124.17,-693C154.008,-693 193.698,-693 227.518,-693"/>
<polygon fill="black" stroke="black" points="227.808,-696.5 237.808,-693 227.808,-689.5 227.808,-696.5"/>
</g>
<!-- cas_bas_sc_utl_body.FUNCTION|is_pol -->
<g id="node18" class="node"><title>cas_bas_sc_utl_body.FUNCTION|is_pol</title>
<ellipse fill="none" stroke="red" cx="78" cy="-18" rx="33.2948" ry="18"/>
<text text-anchor="middle" x="78" y="-14.3" font-family="Times New Roman,serif" font-size="14.00">is_pol</text>
</g>
<!-- cas_bas_sc_utl_body.FUNCTION|is_pol&#45;&gt;cas_bas_sc_utl_body.FUNCTION|get_prim_file_typ -->
<g id="edge12" class="edge"><title>cas_bas_sc_utl_body.FUNCTION|is_pol&#45;&gt;cas_bas_sc_utl_body.FUNCTION|get_prim_file_typ</title>
<path fill="none" stroke="black" d="M107.289,-26.5351C122.062,-31.3364 140.286,-37.8057 156,-45 193.638,-62.2318 234.418,-86.2975 262.393,-103.715"/>
<polygon fill="black" stroke="black" points="260.674,-106.769 271.005,-109.12 264.395,-100.84 260.674,-106.769"/>
</g>
<!-- cas_bas_sc_utl_body.PROCEDURE|active_lock -->
<g id="node19" class="node"><title>cas_bas_sc_utl_body.PROCEDURE|active_lock</title>
<ellipse fill="none" stroke="green" cx="298" cy="-639" rx="51.9908" ry="18"/>
<text text-anchor="middle" x="298" y="-635.3" font-family="Times New Roman,serif" font-size="14.00">active_lock</text>
</g>
<!-- cas_bas_sc_utl_body.PROCEDURE|bas_lock -->
<g id="node20" class="node"><title>cas_bas_sc_utl_body.PROCEDURE|bas_lock</title>
<ellipse fill="none" stroke="green" cx="78" cy="-612" rx="44.393" ry="18"/>
<text text-anchor="middle" x="78" y="-608.3" font-family="Times New Roman,serif" font-size="14.00">bas_lock</text>
</g>
<!-- cas_bas_sc_utl_body.PROCEDURE|bas_lock&#45;&gt;cas_bas_sc_utl_body.FUNCTION|get_lock_stat -->
<g id="edge13" class="edge"><title>cas_bas_sc_utl_body.PROCEDURE|bas_lock&#45;&gt;cas_bas_sc_utl_body.FUNCTION|get_lock_stat</title>
<path fill="none" stroke="black" d="M105.312,-626.375C127.821,-638.231 161.349,-654.855 192,-666 206.946,-671.434 223.464,-676.223 238.888,-680.199"/>
<polygon fill="black" stroke="black" points="238.288,-683.657 248.839,-682.694 239.99,-676.867 238.288,-683.657"/>
</g>
<!-- cas_bas_sc_utl_body.PROCEDURE|bas_lock&#45;&gt;cas_bas_sc_utl_body.PROCEDURE|active_lock -->
<g id="edge14" class="edge"><title>cas_bas_sc_utl_body.PROCEDURE|bas_lock&#45;&gt;cas_bas_sc_utl_body.PROCEDURE|active_lock</title>
<path fill="none" stroke="black" d="M120.517,-617.142C153.942,-621.282 201.323,-627.15 238.577,-631.764"/>
<polygon fill="black" stroke="black" points="238.442,-635.274 248.796,-633.03 239.302,-628.327 238.442,-635.274"/>
</g>
<!-- cas_bas_sc_utl_body.PROCEDURE|bas_lock.PROCEDURE|add_lock -->
<g id="node21" class="node"><title>cas_bas_sc_utl_body.PROCEDURE|bas_lock.PROCEDURE|add_lock</title>
<ellipse fill="none" stroke="green" cx="298" cy="-585" rx="44.6926" ry="18"/>
<text text-anchor="middle" x="298" y="-581.3" font-family="Times New Roman,serif" font-size="14.00">add_lock</text>
</g>
<!-- cas_bas_sc_utl_body.PROCEDURE|bas_lock&#45;&gt;cas_bas_sc_utl_body.PROCEDURE|bas_lock.PROCEDURE|add_lock -->
<g id="edge15" class="edge"><title>cas_bas_sc_utl_body.PROCEDURE|bas_lock&#45;&gt;cas_bas_sc_utl_body.PROCEDURE|bas_lock.PROCEDURE|add_lock</title>
<path fill="none" stroke="black" d="M120.517,-606.858C155.748,-602.494 206.486,-596.21 244.526,-591.499"/>
<polygon fill="black" stroke="black" points="245.401,-594.918 254.895,-590.215 244.54,-587.971 245.401,-594.918"/>
</g>
<!-- cas_bas_sc_utl_body.PROCEDURE|bas_lock.PROCEDURE|update_lock -->
<g id="node22" class="node"><title>cas_bas_sc_utl_body.PROCEDURE|bas_lock.PROCEDURE|update_lock</title>
<ellipse fill="none" stroke="green" cx="298" cy="-531" rx="55.7903" ry="18"/>
<text text-anchor="middle" x="298" y="-527.3" font-family="Times New Roman,serif" font-size="14.00">update_lock</text>
</g>
<!-- cas_bas_sc_utl_body.PROCEDURE|bas_lock&#45;&gt;cas_bas_sc_utl_body.PROCEDURE|bas_lock.PROCEDURE|update_lock -->
<g id="edge16" class="edge"><title>cas_bas_sc_utl_body.PROCEDURE|bas_lock&#45;&gt;cas_bas_sc_utl_body.PROCEDURE|bas_lock.PROCEDURE|update_lock</title>
<path fill="none" stroke="black" d="M105.312,-597.625C127.821,-585.769 161.349,-569.145 192,-558 207.674,-552.301 225.078,-547.312 241.135,-543.225"/>
<polygon fill="black" stroke="black" points="242.066,-546.6 250.932,-540.798 240.383,-539.805 242.066,-546.6"/>
</g>
<!-- cas_bas_sc_utl_body.PROCEDURE|bas_unlock -->
<g id="node23" class="node"><title>cas_bas_sc_utl_body.PROCEDURE|bas_unlock</title>
<ellipse fill="none" stroke="green" cx="78" cy="-864" rx="52.7911" ry="18"/>
<text text-anchor="middle" x="78" y="-860.3" font-family="Times New Roman,serif" font-size="14.00">bas_unlock</text>
</g>
<!-- cas_bas_sc_utl_body.PROCEDURE|bas_unlock.PROCEDURE|delete_lock -->
<g id="node24" class="node"><title>cas_bas_sc_utl_body.PROCEDURE|bas_unlock.PROCEDURE|delete_lock</title>
<ellipse fill="none" stroke="green" cx="298" cy="-864" rx="51.9908" ry="18"/>
<text text-anchor="middle" x="298" y="-860.3" font-family="Times New Roman,serif" font-size="14.00">delete_lock</text>
</g>
<!-- cas_bas_sc_utl_body.PROCEDURE|bas_unlock&#45;&gt;cas_bas_sc_utl_body.PROCEDURE|bas_unlock.PROCEDURE|delete_lock -->
<g id="edge17" class="edge"><title>cas_bas_sc_utl_body.PROCEDURE|bas_unlock&#45;&gt;cas_bas_sc_utl_body.PROCEDURE|bas_unlock.PROCEDURE|delete_lock</title>
<path fill="none" stroke="black" d="M130.663,-864C162.156,-864 202.576,-864 235.685,-864"/>
<polygon fill="black" stroke="black" points="235.708,-867.5 245.708,-864 235.708,-860.5 235.708,-867.5"/>
</g>
<!-- cas_bas_sc_utl_body.PROCEDURE|get_receive_info -->
<g id="node25" class="node"><title>cas_bas_sc_utl_body.PROCEDURE|get_receive_info</title>
<ellipse fill="none" stroke="green" cx="78" cy="-315" rx="70.6878" ry="18"/>
<text text-anchor="middle" x="78" y="-311.3" font-family="Times New Roman,serif" font-size="14.00">get_receive_info</text>
</g>
<!-- cas_bas_sc_utl_body.PROCEDURE|get_receive_info&#45;&gt;cas_bas_sc_utl_body.FUNCTION|get_avail_biz_cat_tab -->
<g id="edge18" class="edge"><title>cas_bas_sc_utl_body.PROCEDURE|get_receive_info&#45;&gt;cas_bas_sc_utl_body.FUNCTION|get_avail_biz_cat_tab</title>
<path fill="none" stroke="black" d="M129.287,-327.456C159.485,-334.937 198.253,-344.54 230.908,-352.628"/>
<polygon fill="black" stroke="black" points="230.281,-356.079 240.829,-355.086 231.964,-349.284 230.281,-356.079"/>
</g>
<!-- cas_bas_sc_utl_body.PROCEDURE|get_receive_info&#45;&gt;cas_bas_sc_utl_body.FUNCTION|get_cas_app_pol_num -->
<g id="edge19" class="edge"><title>cas_bas_sc_utl_body.PROCEDURE|get_receive_info&#45;&gt;cas_bas_sc_utl_body.FUNCTION|get_cas_app_pol_num</title>
<path fill="none" stroke="black" d="M129.287,-302.544C159.144,-295.148 197.377,-285.677 229.796,-277.647"/>
<polygon fill="black" stroke="black" points="230.79,-281.006 239.655,-275.205 229.107,-274.212 230.79,-281.006"/>
</g>
<!-- cas_bas_sc_utl_body.PROCEDURE|get_receive_info&#45;&gt;cas_bas_sc_utl_body.FUNCTION|get_cas_pos_quota_prem -->
<g id="edge20" class="edge"><title>cas_bas_sc_utl_body.PROCEDURE|get_receive_info&#45;&gt;cas_bas_sc_utl_body.FUNCTION|get_cas_pos_quota_prem</title>
<path fill="none" stroke="black" d="M148.876,-315C159.365,-315 170.41,-315 181.546,-315"/>
<polygon fill="black" stroke="black" points="181.785,-318.5 191.785,-315 181.785,-311.5 181.785,-318.5"/>
</g>
<!-- cas_bas_sc_utl_body.PROCEDURE|update_bas_tip -->
<g id="node26" class="node"><title>cas_bas_sc_utl_body.PROCEDURE|update_bas_tip</title>
<ellipse fill="none" stroke="green" cx="78" cy="-450" rx="66.8882" ry="18"/>
<text text-anchor="middle" x="78" y="-446.3" font-family="Times New Roman,serif" font-size="14.00">update_bas_tip</text>
</g>
<!-- cas_bas_sc_utl_body.PROCEDURE|update_bas_tip&#45;&gt;cas_bas_sc_utl_body.FUNCTION|get_lack_docs -->
<g id="edge21" class="edge"><title>cas_bas_sc_utl_body.PROCEDURE|update_bas_tip&#45;&gt;cas_bas_sc_utl_body.FUNCTION|get_lack_docs</title>
<path fill="none" stroke="black" d="M139.147,-457.449C167.105,-460.912 200.471,-465.045 229.309,-468.616"/>
<polygon fill="black" stroke="black" points="228.95,-472.098 239.304,-469.854 229.81,-465.151 228.95,-472.098"/>
</g>
<!-- cas_bas_sc_utl_body.PROCEDURE|update_bas_tip&#45;&gt;cas_bas_sc_utl_body.FUNCTION|get_prob_list -->
<g id="edge22" class="edge"><title>cas_bas_sc_utl_body.PROCEDURE|update_bas_tip&#45;&gt;cas_bas_sc_utl_body.FUNCTION|get_prob_list</title>
<path fill="none" stroke="black" d="M139.147,-442.551C168.233,-438.948 203.17,-434.621 232.775,-430.955"/>
<polygon fill="black" stroke="black" points="233.511,-434.39 243.005,-429.687 232.651,-427.443 233.511,-434.39"/>
</g>
</g>
</svg>
